<?xml version="1.0" encoding="utf-8"?><!-- Uploaded to: SVG Repo, www.svgrepo.com, Generator: SVG Repo Mixer Tools -->
<svg fill="#000000" width="800px" height="800px" viewBox="0 0 24 24" id="calendar" data-name="Flat Line" xmlns="http://www.w3.org/2000/svg" class="icon flat-line"><path id="secondary" d="M3,20a1,1,0,0,0,1,1H20a1,1,0,0,0,1-1V9H3Z" style="fill: rgb(44, 169, 188); stroke-width: 2;"></path><path id="primary" d="M20,21H4a1,1,0,0,1-1-1V5A1,1,0,0,1,4,4H20a1,1,0,0,1,1,1V20A1,1,0,0,1,20,21ZM20,4H4A1,1,0,0,0,3,5V9H21V5A1,1,0,0,0,20,4ZM17,3V5M12,3V5M7,3V5" style="fill: none; stroke: rgb(0, 0, 0); stroke-linecap: round; stroke-linejoin: round; stroke-width: 2;"></path></svg>